<svg width="400" height="64" xmlns="http://www.w3.org/2000/svg">

 <g>
  <title>background</title>
  <rect fill="none" id="canvas_background" height="66" width="402" y="-1" x="-1"/>
 </g>
 <g>
  <title>Layer 1</title>
  <path fill-rule="evenodd" fill="#1f73b3" d="m208.042999,10.906c-0.264999,0.223 -0.794006,0.53 -1.175003,0.683c-0.463989,0.185 -0.903,0.556001 -1.322998,1.116c-1.317993,1.758 -1.673996,2.636 -2.973999,7.337c-0.121002,0.436001 -0.272995,2.007999 -0.337997,3.492001c-0.138,3.149 -0.240005,3.365 -1.669998,3.538c-0.447006,0.053999 -1.161011,0.209999 -1.585007,0.345999c-0.425003,0.137001 -1.042999,0.249001 -1.373001,0.249001c-0.423996,0 -0.755997,0.139 -1.132996,0.476l-0.533997,0.477001l0.451996,0.452l0.451996,0.452l2.458008,-0.117001c3.015991,-0.143 2.787003,-0.371 3.024002,3.01c0.102997,1.466 0.258987,3.379002 0.347,4.25c0.087997,0.869999 0.200989,3.233002 0.250992,5.25c0.128998,5.208 0.182007,5.675999 0.718002,6.269001c0.727997,0.807999 1.535004,0.833 2.119995,0.065998l0.471008,-0.618l0.002991,-3.191998c0.001999,-1.756001 -0.090988,-4.425003 -0.207001,-5.932003c-0.252991,-3.273998 -0.201996,-9.735998 0.078003,-10.015999c0.375,-0.373999 4.442001,-0.629 7.534012,-0.473c2.455994,0.125 2.758987,-2.447001 0.312988,-2.65c-1.263,-0.105 -5.862,0.43 -6.815002,0.792c-1.395996,0.530001 -1.598999,-0.106001 -1.337997,-4.198c0.147003,-2.299999 0.218002,-2.698999 0.669006,-3.728001c0.276993,-0.635 0.556,-1.436001 0.619995,-1.779999c0.063995,-0.345001 0.244995,-0.795001 0.403,-1.000001c0.156998,-0.205999 0.456009,-0.674 0.66301,-1.04c1.472992,-2.602 4.107986,-1.971 5.598999,1.34c1.117996,2.482 3.125,1.133999 2.643997,-1.777c-0.408005,-2.467 -6.438004,-4.686 -8.354004,-3.073999m12.087006,0.771c-0.348999,0.204 -0.931,1.474 -1.139999,2.49c-0.084,0.412001 -0.202011,6.455 -0.262009,13.429001c-0.119995,13.986 -0.121002,13.962997 0.852005,14.994999c1.412994,1.499001 4.097,0.118 3.117996,-1.604c-0.655991,-1.154999 -0.918991,-5.743 -0.634003,-11.07c0.059006,-1.1 0.141006,-4.1 0.182007,-6.667c0.041,-2.566999 0.125992,-5.985001 0.188995,-7.597c0.063004,-1.611 0.068008,-3.117 0.011002,-3.346c-0.173004,-0.687 -1.567001,-1.067 -2.315994,-0.63m42.299988,1.210999c-0.463989,0.464001 -0.460999,0.359 -0.089996,3.279c0.087006,0.687 0.235016,2.365 0.328003,3.728001c0.092987,1.362 0.204987,2.535 0.248993,2.605999c0.10202,0.165001 0.580017,16.767002 0.582001,20.201c0.001007,2.959 0.003998,2.965 1.32901,2.965c1.195007,0 1.763,-0.354 2.075012,-1.291c0.149994,-0.453999 0.454987,-1.070999 0.677979,-1.373001c0.222992,-0.301998 0.490021,-0.969997 0.593018,-1.483997c0.104004,-0.514999 0.365997,-1.198002 0.582001,-1.519001c0.21698,-0.320999 0.475983,-0.958 0.576996,-1.417c0.100983,-0.458 0.367004,-1.098999 0.591003,-1.423c0.223999,-0.325001 0.527985,-1 0.677002,-1.5c0.14798,-0.500999 0.401001,-1.097 0.560974,-1.327c0.161011,-0.229 0.388,-0.716 0.506012,-1.083c0.118011,-0.367001 0.393005,-0.929001 0.610016,-1.25c0.217987,-0.320999 0.475983,-0.882999 0.572998,-1.25c0.096985,-0.367001 0.395996,-1.011 0.662994,-1.431c0.266998,-0.421 0.485992,-0.839001 0.485992,-0.929001c0,-0.091 0.261993,-0.533998 0.583008,-0.984999c0.320984,-0.451 0.583984,-0.887001 0.583984,-0.969c0,-0.082001 0.300018,-0.474001 0.666016,-0.872002c0.367004,-0.397999 0.666992,-0.797998 0.666992,-0.889999c0,-0.167999 1.183014,-0.841 1.47699,-0.841c0.262024,0 0.779999,1.024 1.183014,2.337999c0.587006,1.912001 0.704987,4.684 0.501984,11.699999c-0.135986,4.664001 -0.130981,6.211002 0.018005,6.5c0.641022,1.240002 1.705994,1.351002 2.744995,0.288002l0.65802,-0.674999l-0.019012,-3.534c-0.054993,-10.294001 -0.511993,-15.418001 -1.524994,-17.079c-1.312012,-2.151001 -2.263,-2.705999 -4.122009,-2.402c-0.966003,0.157 -2.792999,1.431999 -3.234985,2.257c-0.145996,0.273001 -0.509003,0.773001 -0.806,1.112c-0.298004,0.34 -0.653015,0.885 -0.789001,1.212c-0.136993,0.326 -0.326019,0.642 -0.421997,0.701c-0.095001,0.059 -0.394012,0.546001 -0.665009,1.082001c-0.270996,0.537001 -0.563995,1.02 -0.651001,1.073999c-0.087006,0.054001 -0.247009,0.378 -0.355988,0.720001c-0.109009,0.342999 -0.412018,0.963999 -0.674011,1.379999c-0.261993,0.417 -0.588989,1.077999 -0.72699,1.469c-0.138,0.392 -0.39801,0.898001 -0.576996,1.126001c-0.179016,0.228001 -0.377014,0.653999 -0.440002,0.946999c-0.181,0.841999 -0.556,1.451 -0.891998,1.451c-0.726013,0 -0.761017,-0.257 -0.869019,-6.316999c-0.18399,-10.283001 -0.505005,-15.637001 -0.972992,-16.214001c-0.487,-0.603 -2.338013,-0.654 -2.911011,-0.081m-35.298996,0.237c-1.287003,1.475 -0.235001,3.042 2.042007,3.042c1.147003,0 1.544998,-0.368999 1.397003,-1.294c-0.21701,-1.357 -2.686005,-2.612 -3.439011,-1.748m90.317001,0.878c-0.751984,0.224999 -0.911011,0.451 -1.194,1.693999c-0.145996,0.646001 -0.40799,1.451001 -0.579987,1.789001c-0.173004,0.339001 -0.402008,1.098999 -0.509003,1.690001c-0.106995,0.591 -0.348022,1.448999 -0.535004,1.907c-0.350006,0.858 -0.699005,2.038 -1.628998,5.5c-0.296021,1.1 -0.681,2.281 -0.856018,2.625c-0.174988,0.343 -0.458984,1.325001 -0.630981,2.181999c-0.173004,0.856003 -0.462006,1.850002 -0.644012,2.208c-0.182007,0.359001 -0.421997,1.09 -0.531982,1.625999c-0.111023,0.535999 -0.304016,1.219002 -0.429016,1.518002c-0.125,0.299 -0.412994,1.285 -0.640991,2.191998c-0.22702,0.907001 -0.569,1.946003 -0.757996,2.310001c-0.774017,1.487 -0.393005,2.089001 1.322998,2.089001c1.371002,0 1.600983,-0.152 1.824982,-1.206001c0.10202,-0.481998 0.411011,-1.59 0.686005,-2.459999c0.274994,-0.870998 0.59201,-1.883999 0.703003,-2.25c0.296997,-0.975998 0.697998,-1.063 4.963013,-1.074001c4.074005,-0.010998 4.035004,-0.021999 4.390991,1.240002c0.128998,0.459 0.35199,1.171001 0.493988,1.584c0.143005,0.411999 0.348999,1.312 0.459015,2c0.346008,2.171001 0.346985,2.171001 4.924988,2.216999c4.434021,0.044003 4.796997,-0.094997 4.052002,-1.553997c-0.192993,-0.379002 -0.457001,-1.290001 -0.585999,-2.024002c-0.128998,-0.734001 -0.421997,-1.731998 -0.652008,-2.216999c-0.228973,-0.485001 -0.501984,-1.435001 -0.605988,-2.111c-0.102997,-0.674999 -0.365997,-1.605999 -0.583008,-2.068001c-0.217987,-0.462002 -0.471985,-1.383999 -0.566986,-2.048c-0.093994,-0.664 -0.348999,-1.560999 -0.567017,-1.993c-0.217987,-0.431999 -0.449982,-1.198 -0.515991,-1.702c-0.065002,-0.504999 -0.296997,-1.441999 -0.514008,-2.084c-0.217987,-0.641001 -0.509979,-1.711 -0.648987,-2.375999c-0.140015,-0.666 -0.431,-1.566 -0.64801,-2c-0.21698,-0.435001 -0.488007,-1.390001 -0.602997,-2.124001c-0.11499,-0.733 -0.311005,-1.530001 -0.434998,-1.771c-0.123993,-0.241001 -0.377991,-0.991001 -0.563995,-1.667c-0.502014,-1.827001 -0.472992,-1.814 -3.984009,-1.797001c-1.617004,0.008 -3.151001,0.077001 -3.408997,0.155001m18.764008,0.016c-0.296021,0.085 -0.605011,0.285 -0.688019,0.443c-0.185974,0.355 -0.248993,28.040998 -0.064972,28.318998c0.270996,0.410004 1.097992,0.538002 3.573975,0.553001c4.632019,0.027 4.438019,0.042999 4.891022,-0.41l0.408997,-0.409l0,-5.748001l0,-5.747999l0.371002,-0.259998c0.294983,-0.207001 0.878998,-0.259001 2.885986,-0.259001c2.72699,0 4.136993,-0.187 5.097992,-0.677c0.338013,-0.173 0.940002,-0.364 1.338013,-0.424999c0.996002,-0.153 2.997009,-1.258001 3.363007,-1.857c0.075989,-0.125 0.345001,-0.467001 0.596985,-0.759001c1.165009,-1.35 1.806,-4.844 1.187012,-6.472c-0.179993,-0.473 -0.377991,-1.205 -0.440002,-1.626999c-0.178009,-1.208 -2.858002,-3.683001 -3.988007,-3.683001c-0.145996,0 -0.66098,-0.187 -1.144989,-0.416c-0.483002,-0.228 -1.276001,-0.490999 -1.761993,-0.582999c-1.114014,-0.211 -14.887024,-0.196 -15.626007,0.018m28.704987,-0.078c-0.18399,0.043 -0.539978,0.158 -0.791992,0.255l-0.458008,0.177999l0,14.238l0,14.237999l0.625,0.264c1.371002,0.579002 7.641998,0.309002 8.080017,-0.347c0.067993,-0.100998 0.123993,-6.500999 0.125,-14.220999l0.002991,-14.037999l-0.450012,-0.296c-0.440979,-0.289 -6.134979,-0.506 -7.132996,-0.271m-68.27298,1.395c-0.150024,0.087999 -0.525024,0.551999 -0.834015,1.032l-0.559998,0.872999l-0.096985,4.421001c-0.053009,2.431999 -0.109009,4.438 -0.125,4.459c-0.287018,0.382 -1.09903,0.584999 -2.875,0.719999c-1.497009,0.114 -2.216003,0.245001 -2.690002,0.492001c-0.356018,0.185999 -1.123016,0.405001 -1.705017,0.487c-1.945984,0.276001 -2.397003,0.997 -0.927002,1.486c0.925995,0.307001 5.953003,0.025 6.947998,-0.390999c1.19101,-0.497002 1.244019,-0.339001 1.503998,4.501999c0.212006,3.959 0.309998,4.987999 0.701996,7.416c0.111023,0.688 0.238007,1.491001 0.282013,1.785c0.153015,1.036999 1.026001,1.397999 2.487,1.029999c1.214996,-0.306 1.485016,-1.364998 0.72699,-2.851997c-0.465973,-0.914001 -0.661987,-3.206001 -0.684998,-8.046001c-0.022003,-4.481001 -0.015991,-4.516001 0.921997,-4.752001c0.384003,-0.095999 1.003021,-0.320999 1.375,-0.498999c0.480011,-0.230001 1.322021,-0.372 2.916016,-0.494001c2.571991,-0.195 3.117004,-0.323 4.059998,-0.950998c1.118988,-0.745001 1.157013,-0.84 0.82901,-2.070002c-0.21402,-0.802999 -2.268005,-0.900999 -3.125,-0.147999c-0.457001,0.400999 -0.803009,0.532 -1.71402,0.647999c-0.627991,0.08 -1.699005,0.342001 -2.380005,0.581001c-2.990997,1.052 -3.056976,0.955999 -3.008972,-4.377001c0.044983,-5.073 0.063995,-4.788 -0.337006,-5.188c-0.355011,-0.355 -1.218018,-0.439 -1.688995,-0.164m51.458984,1.268c1.873993,0.889 2.662018,2.739 2.51001,5.893999c-0.192993,4.011002 -1.562012,5.646 -4.584015,5.475c-1.824005,-0.102999 -1.707001,0.312 -1.656006,-5.865l0.044006,-5.348l0.416016,-0.211c0.604004,-0.305 2.580994,-0.271999 3.269989,0.055m-207.026993,0.885c-1.117004,0.087999 -1.945007,0.250999 -2.490997,0.493c-0.450012,0.198999 -1.347,0.435999 -1.993011,0.527c-1.459,0.205 -1.692993,0.278 -2.422989,0.752998c-0.322006,0.209002 -0.961014,0.432001 -1.419006,0.494001c-0.457993,0.060999 -1.095993,0.288 -1.417007,0.504c-0.320999,0.215 -0.862991,0.507999 -1.204987,0.65c-1.117004,0.465 -1.673996,1.864 -0.884003,2.223c0.78299,0.357 2.000992,0.253 2.560989,-0.217999c0.274002,-0.231001 0.821014,-0.533001 1.21701,-0.673c0.395004,-0.139 0.884003,-0.409 1.085999,-0.599001c1.253998,-1.177999 3.895004,-0.851 3.724991,0.461c-0.103989,0.809999 -0.044998,3.416 0.167007,7.396c0.091003,1.695999 0.231995,5.557999 0.313995,8.583c0.082001,3.025002 0.158005,5.620998 0.167999,5.768002c0.039001,0.570999 0.800003,1.148998 1.514999,1.148998c1.534012,0 2.322006,-0.708 1.998001,-1.793999c-0.30899,-1.034 -0.552994,-4.432003 -0.565994,-7.873001l-0.011993,-3.25l0.76799,-0.416c0.423004,-0.229 1.022995,-0.584999 1.333008,-0.791c0.310989,-0.205999 0.792999,-0.375 1.070999,-0.375c0.292999,-0.000999 0.886002,-0.246 1.410995,-0.584c0.498001,-0.320999 1.022995,-0.584 1.167007,-0.584c0.14299,0 0.645996,-0.243 1.116989,-0.541c0.471008,-0.298 1.069,-0.673 1.328003,-0.834c1.718002,-1.064001 2.574005,-1.798 3.514999,-3.018l0.790009,-1.023001l0.056,-1.784l0.056,-1.783998l-0.839005,-0.826c-0.503006,-0.495001 -1.059998,-0.874001 -1.389999,-0.947001c-0.302002,-0.066 -1.085007,-0.334 -1.738007,-0.594999c-1.341995,-0.537001 -5.501999,-0.765001 -8.985992,-0.492001m5.780991,2.18c3.366013,0.33 4.48201,1.514999 3.542999,3.762999c-0.53299,1.273001 -1.554993,2.207001 -3.649994,3.332001c-0.457993,0.246 -1.011993,0.587 -1.229996,0.757999c-0.218002,0.171001 -0.70401,0.393002 -1.07901,0.494001c-0.375,0.101 -0.895996,0.363998 -1.15799,0.584c-0.570999,0.480999 -1.62001,0.546999 -1.971008,0.124001c-0.30899,-0.372002 -0.244995,-8.195002 0.069,-8.51c0.669998,-0.67 2.419998,-0.844 5.475998,-0.545m81.518005,1.872999c-0.490005,0.618 -0.584,1.544001 -0.475998,4.694c0.266998,7.755001 0.440994,11.423 0.589996,12.431c0.087997,0.595001 0.279999,1.906002 0.428009,2.913002c0.362,2.469997 0.462997,2.656998 1.472,2.720997c1.276993,0.082001 1.928986,-0.800999 1.616989,-2.189999c-0.334991,-1.493999 -0.546997,-6.063999 -0.582993,-12.577999l-0.03801,-6.718l-0.72699,-0.741001c-0.764999,-0.778999 -1.880005,-1.039 -2.283005,-0.532m18.542007,0.118999c-0.459015,0.168001 -1.150009,0.390001 -1.536011,0.494001c-0.746002,0.199999 -3.931992,3.172998 -4.927994,4.598c-1.237,1.77 -1.645996,2.414 -2.169998,3.421c-0.312012,0.599001 -0.664001,1.387001 -0.781006,1.75c-0.117996,0.362 -0.393005,0.968998 -0.612,1.348c-0.880005,1.521 -1.235001,6.535 -0.567001,8.007c0.442001,0.973 1.505997,1.316002 3.552002,1.146c2.397995,-0.200001 3.399002,-0.964001 7.102997,-5.424999c1.783997,-2.148998 1.951996,-2.369999 2.27301,-3c0.163986,-0.320999 0.467987,-0.807999 0.674988,-1.083c0.207001,-0.275002 0.459,-0.809998 0.559998,-1.188999c0.584015,-2.198 1.927002,-1.028 2.281006,1.987c0.121002,1.028 0.376007,2.431 0.567001,3.118c0.414001,1.487 0.722,6.764 0.490005,8.402c-0.42601,3.003998 -2.639008,6.484001 -4.838013,7.605c-0.345993,0.176998 -0.677994,0.398998 -0.735992,0.493c-0.057999,0.095001 -0.382004,0.320999 -0.720001,0.502998c-0.337006,0.183002 -0.800995,0.480003 -1.029999,0.662003c-0.229004,0.181 -0.925995,0.434998 -1.548996,0.563999c-1.899002,0.391998 -2.919006,1.856998 -1.660004,2.382999c0.843994,0.352001 4.022995,0.238998 4.876007,-0.174c1.133987,-0.549999 2.217987,-1.238998 2.366989,-1.504002c0.083008,-0.147999 0.428009,-0.410999 0.766998,-0.584c1.275009,-0.649998 4.650009,-4.814999 4.966003,-6.127998c0.063019,-0.258999 0.244995,-0.734001 0.404999,-1.055c0.98999,-1.986 1.131989,-8.063 0.263,-11.247002c-0.25,-0.914997 -0.528992,-2.257999 -0.619995,-2.982998c-0.089996,-0.726002 -0.341003,-1.740002 -0.556,-2.253c-0.268005,-0.639 -0.447006,-1.538 -0.568008,-2.85c-0.097,-1.053999 -0.291,-2.292 -0.431992,-2.75c-0.139999,-0.459 -0.255997,-1.101999 -0.257004,-1.43c-0.003006,-0.909 -0.584,-1.359999 -1.934006,-1.5c-0.865997,-0.09 -1.265991,-0.233999 -1.953995,-0.705999c-1.511993,-1.038 -2.229996,-1.159 -3.696991,-0.620001m-79,0.351c-1.062012,0.259001 -3.81601,3.166 -4.775009,5.040001c-0.287003,0.559999 -0.388,0.628 -0.858994,0.583l-0.533005,-0.052l-0.100998,-1.783001c-0.154999,-2.720999 -0.544998,-3.466999 -1.81601,-3.466999c-1.390991,0 -1.938995,1.025999 -1.677994,3.139999c0.098999,0.794001 0.248001,4.894001 0.333008,9.110001c0.173996,8.639999 0.195999,8.805 1.232986,9.312c0.618011,0.301998 0.658005,0.301998 1.310013,0.007999c1.15799,-0.522999 1.164993,-0.555 1.105988,-5.019001l-0.054001,-3.973l0.709015,-1.425999c0.388992,-0.785 0.707993,-1.505001 0.707993,-1.599001c0,-0.094999 0.190994,-0.454 0.425003,-0.799c0.233002,-0.344 0.563004,-0.99 0.733002,-1.437c0.168991,-0.445999 0.502991,-1.042999 0.741989,-1.327c0.238007,-0.282999 0.432999,-0.608999 0.432999,-0.723c0,-0.115 0.193008,-0.389 0.428009,-0.610001c0.235001,-0.221001 0.617004,-0.750999 0.848999,-1.177c0.735001,-1.35 2.119995,-1.58 3.268997,-0.541c0.945999,0.854 3.111008,0.715 3.466995,-0.222c0.388,-1.019999 -0.229996,-2.195999 -1.515991,-2.886c-0.512009,-0.275 -3.490997,-0.378 -4.412994,-0.152m17.097,0.070002c-0.644012,0.144999 -1.240005,0.401999 -1.5,0.643999c-0.237015,0.221001 -0.656006,0.516001 -0.931015,0.655001c-1.191986,0.601999 -3.220993,2.937 -4.012985,4.618999c-0.238007,0.504 -0.536011,1.032 -0.662003,1.174c-0.126999,0.141001 -0.347,0.761 -0.490005,1.378c-0.143005,0.617001 -0.427002,1.438999 -0.630997,1.825998c-0.537003,1.023003 -0.56601,6.263 -0.039001,7.046001c0.182999,0.271 0.522003,0.866001 0.753998,1.321999c0.246994,0.484001 0.664001,0.983002 1.001999,1.197002c0.319,0.201 0.820999,0.564999 1.117004,0.807999c1.056,0.867001 6.668991,1.065002 7.895996,0.278999c0.311996,-0.199997 0.785995,-0.493999 1.055008,-0.654999c0.562988,-0.335999 2.768997,-2.514 3.519989,-3.473999c1.281006,-1.639999 2.832001,-5.473 2.417007,-5.973c-0.707001,-0.852001 -1.432007,-0.484001 -2.42601,1.233997c-0.274994,0.475002 -0.664993,1.102001 -0.867996,1.393002c-0.203003,0.290001 -0.513992,0.791 -0.692993,1.112c-0.473999,0.852001 -2.104004,2.591999 -3.175003,3.389999l-0.929993,0.693001l-1.938004,0.055l-1.936996,0.055l-0.613007,-0.538002c-0.337006,-0.295998 -0.729996,-0.771 -0.874008,-1.055c-0.14299,-0.283997 -0.401993,-0.671997 -0.574997,-0.862c-0.582001,-0.636997 -0.765991,-3.545998 -0.369995,-5.855999c0.098999,-0.579 0.436996,-0.753 1.862,-0.955c0.397003,-0.056 1.089005,-0.288 1.537994,-0.516001c0.449005,-0.226999 1.212006,-0.494999 1.695007,-0.594999c0.483002,-0.1 1.149994,-0.365 1.481003,-0.59c0.332001,-0.223999 0.873001,-0.482 1.203003,-0.573c0.330994,-0.091999 0.80899,-0.34 1.063995,-0.552999c0.25499,-0.212999 0.69899,-0.507999 0.987,-0.655001c2.792999,-1.431999 3.544998,-5.046999 1.244003,-5.982c-0.721008,-0.292 -4.944,-0.325998 -6.169998,-0.047998m133.317993,0.125999c0.087006,0.207001 0.234009,0.815001 0.326996,1.351999c0.093994,0.537001 0.320007,1.220001 0.503998,1.518c0.18399,0.298 0.45401,1.171001 0.598999,1.940001c0.14502,0.769001 0.40802,1.727001 0.584015,2.129c1.334991,3.035 0.919983,3.569 -2.71402,3.493999c-3.398987,-0.07 -3.569977,-0.150002 -3.069977,-1.435999c0.167999,-0.434 0.417999,-1.238001 0.553986,-1.788c0.136017,-0.549999 0.458008,-1.487999 0.716003,-2.084c0.257996,-0.594999 0.515991,-1.427999 0.575012,-1.849001c0.291992,-2.108 1.529999,-4.213999 1.924988,-3.275999m-130.291,1.466999c0.643005,0.179001 1.126007,0.806002 1.126007,1.462c0,0.576 -2.032013,2.151001 -4.25,3.296001c-1.749008,0.903 -3.95401,0.861 -3.285004,-0.063c0.113998,-0.157001 0.313004,-0.512001 0.440994,-0.787001c0.234009,-0.505001 2.628998,-2.884001 3.522003,-3.5c0.800003,-0.551001 1.505997,-0.669001 2.445999,-0.408001m61.578003,1.113001c0.839996,0.393999 0.944992,1.267 0.306,2.528c-0.234009,0.462 -0.546005,1.198999 -0.692001,1.636999c-0.147003,0.439001 -0.404999,0.948 -0.574997,1.133001c-0.169998,0.184 -0.422012,0.605999 -0.561005,0.938c-0.138,0.330999 -0.431,0.817999 -0.651001,1.080999c-0.218994,0.263 -0.526001,0.726002 -0.681,1.028999c-0.156006,0.303001 -0.410004,0.685001 -0.565994,0.850002c-0.154999,0.163998 -0.582001,0.695999 -0.949005,1.181c-0.367004,0.486 -0.985001,1.25 -1.375,1.697998c-0.389999,0.448002 -0.707993,0.881001 -0.707993,0.961002c0,0.189999 -1.972,1.594997 -2.446014,1.743999c-1.146988,0.358997 -1.949997,-0.829002 -1.570999,-2.325001c0.656006,-2.585999 1.082001,-3.903999 1.425003,-4.409c0.219009,-0.320999 0.473007,-0.865999 0.565002,-1.211c0.091995,-0.345999 0.361008,-0.858 0.597,-1.137999c0.236008,-0.281 0.430008,-0.605001 0.430008,-0.721001c0,-0.115 0.299988,-0.629 0.665985,-1.141001c0.367004,-0.511999 0.667007,-0.997 0.667007,-1.077c0,-0.323 2.860992,-2.805 3.459,-3c0.763,-0.248999 1.817993,-0.153 2.660004,0.242001" id="path0"/>
  <path fill-rule="evenodd" fill="#eb18ea" d="m18.57,11.846c-1.013,0.294001 -0.975,-0.217999 -1.087999,14.737c-0.104,13.762001 -0.175001,15.339001 -0.736,16.424999c-0.139,0.268002 -0.372999,1.07 -0.52,1.782001c-0.146999,0.710999 -0.434,1.670998 -0.638,2.132c-0.204,0.460999 -0.464001,1.228001 -0.578,1.704998c-0.115,0.477001 -0.426001,1.141003 -0.693,1.476002c-0.266001,0.334999 -0.484,0.701 -0.484,0.813c0,0.112 -0.225,0.625 -0.5,1.140999c-0.664001,1.243999 -0.638,1.441002 0.297,2.229c1.429,1.205002 2.691998,1.100002 4.075,-0.341c1.919001,-1.999001 3.610001,-4.293999 4.450001,-6.039001c0.268,-0.556999 0.605,-1.108997 0.748999,-1.229c0.144001,-0.118999 0.371,-0.585999 0.505001,-1.035999c0.133999,-0.449997 0.4,-1.038998 0.591999,-1.308998c0.191,-0.269001 0.460001,-1.026001 0.597,-1.681999c0.137001,-0.656002 0.367001,-1.421001 0.511,-1.700001c1.003,-1.938999 1.224001,-5.087002 1.224001,-17.412001c0,-11.064 -0.009001,-11.195 -0.843,-11.626c-0.542,-0.281 -6.003,-0.332 -6.92,-0.066m15.875999,0.029c-0.563999,0.412 -0.605,1.48 -0.608997,16.148001c-0.003002,13.798998 0.012997,14.627001 0.294998,14.976l0.299,0.368999l9.576,0c12.712002,0 11.762001,0.028999 12.16,-0.368c0.369999,-0.369999 0.471001,-1.949001 0.174,-2.729c-0.306,-0.806 -0.528,-0.834999 -6.703999,-0.875c-7.398003,-0.048 -6.998001,0.152 -7.056999,-3.529999c-0.061001,-3.800999 0.073997,-5.333 0.514999,-5.845001l0.375999,-0.438l4.496998,-0.083c5.447002,-0.101 5.632,-0.191999 5.271,-2.601c-0.18,-1.198999 -0.210999,-1.207001 -5.155998,-1.269001c-5.987999,-0.074999 -5.731998,0.201 -5.505001,-5.938c0.144001,-3.912 -0.264999,-3.688999 6.781002,-3.702c6.244999,-0.011 6.451,-0.035999 6.860001,-0.823999c0.41,-0.789001 0.281998,-2.572001 -0.220001,-3.075001c-0.432999,-0.431999 -20.976002,-0.638 -21.553001,-0.216m25.763,0.048c-0.798,0.558 -0.868,2.679 -0.118999,3.551l0.381001,0.443l3.423,0.083c2.382,0.057999 3.484997,0.145 3.627003,0.288c0.398994,0.399 0.454994,2.101999 0.466995,14.228001c0.012001,11.982 0.020004,12.273001 0.340004,12.562998c0.541,0.489002 7.407997,0.425003 7.907997,-0.073997c0.345001,-0.345001 0.348,-0.446003 0.431,-13.295002l0.083,-12.946999l0.566002,-0.381001c0.539001,-0.362999 0.715996,-0.382 3.584,-0.382c3.559998,-0.001 4.033997,-0.135 4.404999,-1.25c0.401001,-1.202 0.084999,-2.619 -0.638,-2.866c-0.982002,-0.334 -23.977001,-0.297999 -24.458,0.039001m28.330002,-0.084001c-0.762001,0.307 -0.993004,2.437 -0.374001,3.453c0.403999,0.662001 -0.169998,0.561 3.890999,0.685c3.389,0.104001 3.481003,0.116 3.792,0.500001c0.307999,0.379999 0.319,0.837999 0.319,13.113998c0,13.117001 0.016998,13.452999 0.694,13.667999c0.490997,0.156002 6.779999,0.172001 7.238998,0.018002c0.727005,-0.243 0.733002,-0.361 0.733002,-13.264c0,-6.768 0.047997,-12.543001 0.106003,-12.834c0.195999,-0.978001 0.916,-1.179001 4.225998,-1.179001c4.126999,0 4.724998,-0.386 4.396996,-2.833c-0.139999,-1.043 -0.167,-1.091 -0.728996,-1.283c-0.712997,-0.243 -23.694,-0.286 -24.293999,-0.045" id="path1"/>
 </g>
</svg>